<svg id="visual" viewBox="0 0 900 600" width="900" height="600" xmlns="http://www.w3.org/2000/svg" xmlns:xlink="http://www.w3.org/1999/xlink" version="1.1"><path d="M0 121L18.8 128C37.7 135 75.3 149 112.8 140C150.3 131 187.7 99 225.2 100C262.7 101 300.3 135 337.8 137C375.3 139 412.7 109 450.2 93C487.7 77 525.3 75 562.8 80C600.3 85 637.7 97 675.2 99C712.7 101 750.3 93 787.8 88C825.3 83 862.7 81 881.3 80L900 79L900 0L881.3 0C862.7 0 825.3 0 787.8 0C750.3 0 712.7 0 675.2 0C637.7 0 600.3 0 562.8 0C525.3 0 487.7 0 450.2 0C412.7 0 375.3 0 337.8 0C300.3 0 262.7 0 225.2 0C187.7 0 150.3 0 112.8 0C75.3 0 37.7 0 18.8 0L0 0Z" fill="#1d2d4e"></path><path d="M0 355L18.8 346C37.7 337 75.3 319 112.8 303C150.3 287 187.7 273 225.2 276C262.7 279 300.3 299 337.8 291C375.3 283 412.7 247 450.2 252C487.7 257 525.3 303 562.8 303C600.3 303 637.7 257 675.2 249C712.7 241 750.3 271 787.8 274C825.3 277 862.7 253 881.3 241L900 229L900 77L881.3 78C862.7 79 825.3 81 787.8 86C750.3 91 712.7 99 675.2 97C637.7 95 600.3 83 562.8 78C525.3 73 487.7 75 450.2 91C412.7 107 375.3 137 337.8 135C300.3 133 262.7 99 225.2 98C187.7 97 150.3 129 112.8 138C75.3 147 37.7 133 18.8 126L0 119Z" fill="#213051"></path><path d="M0 547L18.8 536C37.7 525 75.3 503 112.8 492C150.3 481 187.7 481 225.2 485C262.7 489 300.3 497 337.8 503C375.3 509 412.7 513 450.2 513C487.7 513 525.3 509 562.8 502C600.3 495 637.7 485 675.2 487C712.7 489 750.3 503 787.8 505C825.3 507 862.7 497 881.3 492L900 487L900 227L881.3 239C862.7 251 825.3 275 787.8 272C750.3 269 712.7 239 675.2 247C637.7 255 600.3 301 562.8 301C525.3 301 487.7 255 450.2 250C412.7 245 375.3 281 337.8 289C300.3 297 262.7 277 225.2 274C187.7 271 150.3 285 112.8 301C75.3 317 37.7 335 18.8 344L0 353Z" fill="#253455"></path><path d="M0 601L18.8 601C37.7 601 75.3 601 112.8 601C150.3 601 187.7 601 225.2 601C262.7 601 300.3 601 337.8 601C375.3 601 412.7 601 450.2 601C487.7 601 525.3 601 562.8 601C600.3 601 637.7 601 675.2 601C712.7 601 750.3 601 787.8 601C825.3 601 862.7 601 881.3 601L900 601L900 485L881.3 490C862.7 495 825.3 505 787.8 503C750.3 501 712.7 487 675.2 485C637.7 483 600.3 493 562.8 500C525.3 507 487.7 511 450.2 511C412.7 511 375.3 507 337.8 501C300.3 495 262.7 487 225.2 483C187.7 479 150.3 479 112.8 490C75.3 501 37.7 523 18.8 534L0 545Z" fill="#283859"></path></svg>