<svg id="visual" viewBox="0 0 900 600" width="900" height="600" xmlns="http://www.w3.org/2000/svg" xmlns:xlink="http://www.w3.org/1999/xlink" version="1.1"><rect x="0" y="0" width="900" height="600" fill="#001220"></rect><path d="M0 254L13.7 263.3C27.3 272.7 54.7 291.3 82 299.2C109.3 307 136.7 304 163.8 307.3C191 310.7 218 320.3 245.2 329.7C272.3 339 299.7 348 327 351.5C354.3 355 381.7 353 409 336.8C436.3 320.7 463.7 290.3 491 281C518.3 271.7 545.7 283.3 573 294.8C600.3 306.3 627.7 317.7 654.8 319.2C682 320.7 709 312.3 736.2 313.2C763.3 314 790.7 324 818 327.3C845.3 330.7 872.7 327.3 886.3 325.7L900 324L900 601L886.3 601C872.7 601 845.3 601 818 601C790.7 601 763.3 601 736.2 601C709 601 682 601 654.8 601C627.7 601 600.3 601 573 601C545.7 601 518.3 601 491 601C463.7 601 436.3 601 409 601C381.7 601 354.3 601 327 601C299.7 601 272.3 601 245.2 601C218 601 191 601 163.8 601C136.7 601 109.3 601 82 601C54.7 601 27.3 601 13.7 601L0 601Z" fill="#354562"></path><path d="M0 346L13.7 345.7C27.3 345.3 54.7 344.7 82 343.7C109.3 342.7 136.7 341.3 163.8 339.8C191 338.3 218 336.7 245.2 341C272.3 345.3 299.7 355.7 327 359C354.3 362.3 381.7 358.7 409 362.2C436.3 365.7 463.7 376.3 491 380.8C518.3 385.3 545.7 383.7 573 387.7C600.3 391.7 627.7 401.3 654.8 399.5C682 397.7 709 384.3 736.2 375.2C763.3 366 790.7 361 818 362.7C845.3 364.3 872.7 372.7 886.3 376.8L900 381L900 601L886.3 601C872.7 601 845.3 601 818 601C790.7 601 763.3 601 736.2 601C709 601 682 601 654.8 601C627.7 601 600.3 601 573 601C545.7 601 518.3 601 491 601C463.7 601 436.3 601 409 601C381.7 601 354.3 601 327 601C299.7 601 272.3 601 245.2 601C218 601 191 601 163.8 601C136.7 601 109.3 601 82 601C54.7 601 27.3 601 13.7 601L0 601Z" fill="#3b4866"></path><path d="M0 478L13.7 470C27.3 462 54.7 446 82 443.5C109.3 441 136.7 452 163.8 458.3C191 464.7 218 466.3 245.2 464C272.3 461.7 299.7 455.3 327 455.5C354.3 455.7 381.7 462.3 409 463C436.3 463.7 463.7 458.3 491 452.7C518.3 447 545.7 441 573 437C600.3 433 627.7 431 654.8 430.2C682 429.3 709 429.7 736.2 430.5C763.3 431.3 790.7 432.7 818 437.5C845.3 442.3 872.7 450.7 886.3 454.8L900 459L900 601L886.3 601C872.7 601 845.3 601 818 601C790.7 601 763.3 601 736.2 601C709 601 682 601 654.8 601C627.7 601 600.3 601 573 601C545.7 601 518.3 601 491 601C463.7 601 436.3 601 409 601C381.7 601 354.3 601 327 601C299.7 601 272.3 601 245.2 601C218 601 191 601 163.8 601C136.7 601 109.3 601 82 601C54.7 601 27.3 601 13.7 601L0 601Z" fill="#414c6a"></path></svg>